<svg xmlns="http://www.w3.org/2000/svg" viewBox="0 0 128 128">
  <defs>
    <linearGradient id="g" x1="0" x2="1" y1="0" y2="1">
      <stop offset="0" stop-color="#e9fbff"/>
      <stop offset="0.55" stop-color="#7edcff"/>
      <stop offset="1" stop-color="#2176d2"/>
    </linearGradient>
  </defs>
  <rect width="128" height="128" rx="28" fill="url(#g)"/>
  <path d="M39 60h50a7 7 0 0 1 7 7v34a7 7 0 0 1-7 7H39a7 7 0 0 1-7-7V67a7 7 0 0 1 7-7Z" fill="#063b77" opacity=".9"/>
  <path d="M45 60V46a19 19 0 0 1 38 0v14h-9V46a10 10 0 0 0-20 0v14Z" fill="#ffffff" opacity=".92"/>
  <circle cx="64" cy="83" r="7" fill="#bff4ff"/>
  <path d="M64 18v29M64 81v29M32 34l20 20M76 74l20 20M96 34 76 54M52 74 32 94M22 64h29M77 64h29" stroke="#fff" stroke-width="6" stroke-linecap="round" opacity=".95"/>
  <path d="M64 50 76 64 64 78 52 64Z" fill="#eaffff"/>
</svg>
